
arrow back

<svg viewBox="0 0 24 24" width="24" height="24" class=""><path fill="currentColor" d="m12 4 1.4 1.4L7.8 11H20v2H7.8l5.6 5.6L12 20l-8-8 8-8z"></path></svg>

data-icon="status-v3-unread"

<svg version="1.1" id="df9d3429-f0ef-48b5-b5eb-f9d27b2deba6" x="0" y="0" viewBox="0 0 24 24" width="24" height="24" class=""><path fill="currentColor" d="M12.072 1.761a10.05 10.05 0 0 0-9.303 5.65.977.977 0 0 0 1.756.855 8.098 8.098 0 0 1 7.496-4.553.977.977 0 1 0 .051-1.952zM1.926 13.64a10.052 10.052 0 0 0 7.461 7.925.977.977 0 0 0 .471-1.895 8.097 8.097 0 0 1-6.012-6.386.977.977 0 0 0-1.92.356zm13.729 7.454a10.053 10.053 0 0 0 6.201-8.946.976.976 0 1 0-1.951-.081v.014a8.097 8.097 0 0 1-4.997 7.209.977.977 0 0 0 .727 1.813l.02-.009z"></path><path fill="#009588" d="M19 1.5a3 3 0 1 1 0 6 3 3 0 0 1 0-6z"></path></svg>

data-icon="status-v3"

<svg version="1.1" id="ee51d023-7db6-4950-baf7-c34874b80976" x="0" y="0" viewBox="0 0 24 24" width="24" height="24" class=""><path fill="currentColor" d="M12 20.664a9.163 9.163 0 0 1-6.521-2.702.977.977 0 0 1 1.381-1.381 7.269 7.269 0 0 0 10.024.244.977.977 0 0 1 1.313 1.445A9.192 9.192 0 0 1 12 20.664zm7.965-6.112a.977.977 0 0 1-.944-1.229 7.26 7.26 0 0 0-4.8-8.804.977.977 0 0 1 .594-1.86 9.212 9.212 0 0 1 6.092 11.169.976.976 0 0 1-.942.724zm-16.025-.39a.977.977 0 0 1-.953-.769 9.21 9.21 0 0 1 6.626-10.86.975.975 0 1 1 .52 1.882l-.015.004a7.259 7.259 0 0 0-5.223 8.558.978.978 0 0 1-.955 1.185z"></path></svg>

data-icon="chat"

<svg viewBox="0 0 24 24" width="24" height="24" class=""><path fill="currentColor" d="M19.005 3.175H4.674C3.642 3.175 3 3.789 3 4.821V21.02l3.544-3.514h12.461c1.033 0 2.064-1.06 2.064-2.093V4.821c-.001-1.032-1.032-1.646-2.064-1.646zm-4.989 9.869H7.041V11.1h6.975v1.944zm3-4H7.041V7.1h9.975v1.944z"></path></svg>

data-icon="menu"

<svg viewBox="0 0 24 24" width="24" height="24" class=""><path fill="currentColor" d="M12 7a2 2 0 1 0-.001-4.001A2 2 0 0 0 12 7zm0 2a2 2 0 1 0-.001 3.999A2 2 0 0 0 12 9zm0 6a2 2 0 1 0-.001 3.999A2 2 0 0 0 12 15z"></path></svg>

data-icon="search"

<svg viewBox="0 0 24 24" width="24" height="24" class=""><path fill="currentColor" d="M15.009 13.805h-.636l-.22-.219a5.184 5.184 0 0 0 1.256-3.386 5.207 5.207 0 1 0-5.207 5.208 5.183 5.183 0 0 0 3.385-1.255l.221.22v.635l4.004 3.999 1.194-1.195-3.997-4.007zm-4.808 0a3.605 3.605 0 1 1 0-7.21 3.605 3.605 0 0 1 0 7.21z"></path></svg>

data-icon="archived"

<svg width="20" height="20" viewBox="0 0 20 20" fill="none" class=""><path d="m18.54 3.23-1.39-1.68C16.88 1.21 16.47 1 16 1H4c-.47 0-.88.21-1.16.55L1.46 3.23C1.17 3.57 1 4.02 1 4.5V17c0 1.1.9 2 2 2h14c1.1 0 2-.9 2-2V4.5c0-.48-.17-.93-.46-1.27ZM4.24 3h11.52l.81.97H3.44l.8-.97ZM3 17V6h14v11H3Zm8.45-9h-2.9v3H6l4 4 4-4h-2.55V8Z" fill="currentColor"></path></svg>

data-icon="x"

<svg fill="currentColor" viewBox="0 0 24 24" width="24" height="24" class=""><path d="m19.1 17.2-5.3-5.3 5.3-5.3-1.8-1.8-5.3 5.4-5.3-5.3-1.8 1.7 5.3 5.3-5.3 5.3L6.7 19l5.3-5.3 5.3 5.3 1.8-1.8z"></path></svg>

data-icon="default-user"

<svg viewBox="0 0 212 212" width="212" height="212" class=""><path fill="#DFE5E7" class="background" d="M106.251.5C164.653.5 212 47.846 212 106.25S164.653 212 106.25 212C47.846 212 .5 164.654.5 106.25S47.846.5 106.251.5z"></path><g fill="#FFF"><path class="primary" d="M173.561 171.615a62.767 62.767 0 0 0-2.065-2.955 67.7 67.7 0 0 0-2.608-3.299 70.112 70.112 0 0 0-3.184-3.527 71.097 71.097 0 0 0-5.924-5.47 72.458 72.458 0 0 0-10.204-7.026 75.2 75.2 0 0 0-5.98-3.055c-.062-.028-.118-.059-.18-.087-9.792-4.44-22.106-7.529-37.416-7.529s-27.624 3.089-37.416 7.529c-.338.153-.653.318-.985.474a75.37 75.37 0 0 0-6.229 3.298 72.589 72.589 0 0 0-9.15 6.395 71.243 71.243 0 0 0-5.924 5.47 70.064 70.064 0 0 0-3.184 3.527 67.142 67.142 0 0 0-2.609 3.299 63.292 63.292 0 0 0-2.065 2.955 56.33 56.33 0 0 0-1.447 2.324c-.033.056-.073.119-.104.174a47.92 47.92 0 0 0-1.07 1.926c-.559 1.068-.818 1.678-.818 1.678v.398c18.285 17.927 43.322 28.985 70.945 28.985 27.678 0 52.761-11.103 71.055-29.095v-.289s-.619-1.45-1.992-3.778a58.346 58.346 0 0 0-1.446-2.322zM106.002 125.5c2.645 0 5.212-.253 7.68-.737a38.272 38.272 0 0 0 3.624-.896 37.124 37.124 0 0 0 5.12-1.958 36.307 36.307 0 0 0 6.15-3.67 35.923 35.923 0 0 0 9.489-10.48 36.558 36.558 0 0 0 2.422-4.84 37.051 37.051 0 0 0 1.716-5.25c.299-1.208.542-2.443.725-3.701.275-1.887.417-3.827.417-5.811s-.142-3.925-.417-5.811a38.734 38.734 0 0 0-1.215-5.494 36.68 36.68 0 0 0-3.648-8.298 35.923 35.923 0 0 0-9.489-10.48 36.347 36.347 0 0 0-6.15-3.67 37.124 37.124 0 0 0-5.12-1.958 37.67 37.67 0 0 0-3.624-.896 39.875 39.875 0 0 0-7.68-.737c-21.162 0-37.345 16.183-37.345 37.345 0 21.159 16.183 37.342 37.345 37.342z"></path></g></svg>

data-icon="default-group"

<svg width="212" height="212" viewBox="0 0 212 212" fill="none" class=""><path class="background" d="M105.946.25C164.318.25 211.64 47.596 211.64 106s-47.322 105.75-105.695 105.75C47.571 211.75.25 164.404.25 106S47.571.25 105.946.25Z" fill="#DFE5E7"></path><path class="primary" clip-rule="evenodd" d="M102.282 77.286c0 10.671-8.425 19.285-18.94 19.285s-19.003-8.614-19.003-19.285C64.339 66.614 72.827 58 83.342 58s18.94 8.614 18.94 19.286Zm48.068 2.857c0 9.802-7.738 17.714-17.396 17.714-9.658 0-17.454-7.912-17.454-17.714s7.796-17.715 17.454-17.715c9.658 0 17.396 7.913 17.396 17.715Zm-67.01 29.285c-14.759 0-44.34 7.522-44.34 22.5v11.786c0 3.536 2.85 4.286 6.334 4.286h76.012c3.484 0 6.334-.75 6.334-4.286v-11.786c0-14.978-29.58-22.5-44.34-22.5Zm43.464 1.425c.903.018 1.681.033 2.196.033 14.759 0 45 6.064 45 21.043v9.642c0 3.536-2.85 6.429-6.334 6.429h-32.812c.697-1.993 1.141-4.179 1.141-6.429l-.245-10.5c0-9.561-5.614-13.213-11.588-17.1-1.39-.904-2.799-1.821-4.162-2.828a.843.843 0 0 1-.059-.073.594.594 0 0 0-.194-.184c1.596-.139 4.738-.078 7.057-.033Z"></path></svg>

data-icon="status-check"

<svg viewBox="0 0 14 18" width="14" height="18" class=""><path fill="currentColor" d="m12.502 5.035-.57-.444a.434.434 0 0 0-.609.076l-6.39 8.198a.38.38 0 0 1-.577.039l-2.614-2.556a.435.435 0 0 0-.614.007l-.505.516a.435.435 0 0 0 .007.614l3.887 3.8a.38.38 0 0 0 .577-.039l7.483-9.602a.435.435 0 0 0-.075-.609z"></path></svg>

data-icon="status-dblcheck"

<svg viewBox="0 0 18 18" width="18" height="18" class=""><path fill="currentColor" d="m17.394 5.035-.57-.444a.434.434 0 0 0-.609.076l-6.39 8.198a.38.38 0 0 1-.577.039l-.427-.388a.381.381 0 0 0-.578.038l-.451.576a.497.497 0 0 0 .043.645l1.575 1.51a.38.38 0 0 0 .577-.039l7.483-9.602a.436.436 0 0 0-.076-.609zm-4.892 0-.57-.444a.434.434 0 0 0-.609.076l-6.39 8.198a.38.38 0 0 1-.577.039l-2.614-2.556a.435.435 0 0 0-.614.007l-.505.516a.435.435 0 0 0 .007.614l3.887 3.8a.38.38 0 0 0 .577-.039l7.483-9.602a.435.435 0 0 0-.075-.609z"></path></svg>

data-icon="status-ptt"

<svg viewBox="0 0 12 20" width="12" height="20" class=""><path fill="currentColor" d="M6 11.745a2 2 0 0 0 2-2V4.941a2 2 0 0 0-4 0v4.803a2 2 0 0 0 2 2.001zm3.495-2.001c0 1.927-1.568 3.495-3.495 3.495s-3.495-1.568-3.495-3.495H1.11c0 2.458 1.828 4.477 4.192 4.819v2.495h1.395v-2.495c2.364-.342 4.193-2.362 4.193-4.82H9.495v.001z"></path></svg>

data-icon="pinned2"

<svg width="13" height="15" class=""><path fill="currentColor" d="M12.074 4.21 8.7 8.232l.116 4.233a.4.4 0 0 1-.657.318L.43 6.297a.4.4 0 0 1 .199-.702l4.196-.622L8.196.957a.63.63 0 0 1 .887-.078l2.914 2.445a.63.63 0 0 1 .077.887ZM1.294 14.229a.713.713 0 0 1-1.09-.915l2.674-3.64 1.536 1.288-3.12 3.267Z"></path></svg>

ADJUNTAR

data-icon="attach-contact"

<svg viewBox="0 0 53 53" width="53" height="53" class=""><defs><circle id="contact-SVGID_1_" cx="26.5" cy="26.5" r="25.5"></circle></defs><clipPath id="contact-SVGID_2_"><use xlink:href="#contact-SVGID_1_" overflow="visible"></use></clipPath><g clip-path="url(#contact-SVGID_2_)"><path fill="#0795DC" d="M26.5-1.1C11.9-1.1-1.1 5.6-1.1 27.6h55.2c-.1-19-13-28.7-27.6-28.7z"></path><path fill="#0EABF4" d="M53 26.5H-1.1c0 14.6 13 27.6 27.6 27.6s27.6-13 27.6-27.6H53z"></path></g><g fill="#F5F5F5"><path id="svg-contact" d="M26.5 26.5A4.5 4.5 0 0 0 31 22a4.5 4.5 0 0 0-4.5-4.5A4.5 4.5 0 0 0 22 22a4.5 4.5 0 0 0 4.5 4.5Zm0 2.25c-3.004 0-9 1.508-9 4.5v1.125c0 .619.506 1.125 1.125 1.125h15.75c.619 0 1.125-.506 1.125-1.125V33.25c0-2.992-5.996-4.5-9-4.5Z"></path></g></svg>

data-icon="attach-document"

<svg viewBox="0 0 53 53" width="53" height="53" class=""><defs><circle id="document-SVGID_1_" cx="26.5" cy="26.5" r="25.5"></circle></defs><clipPath id="document-SVGID_2_"><use xlink:href="#document-SVGID_1_" overflow="visible"></use></clipPath><g clip-path="url(#document-SVGID_2_)"><path fill="#5157AE" d="M26.5-1.1C11.9-1.1-1.1 5.6-1.1 27.6h55.2c-.1-19-13-28.7-27.6-28.7z"></path><path fill="#5F66CD" d="M53 26.5H-1.1c0 14.6 13 27.6 27.6 27.6s27.6-13 27.6-27.6H53z"></path></g><g fill="#F5F5F5"><path id="svg-document" d="M29.09 17.09c-.38-.38-.89-.59-1.42-.59H20.5c-1.1 0-2 .9-2 2v16c0 1.1.89 2 1.99 2H32.5c1.1 0 2-.9 2-2V23.33c0-.53-.21-1.04-.59-1.41l-4.82-4.83zM27.5 22.5V18l5.5 5.5h-4.5c-.55 0-1-.45-1-1z"></path></g></svg>

data-icon="attach-camera"

<svg viewBox="0 0 53 53" width="53" height="53" class=""><defs><circle id="camera-SVGID_1_" cx="26.5" cy="26.5" r="25.5"></circle></defs><clipPath id="camera-SVGID_2_"><use xlink:href="#camera-SVGID_1_" overflow="visible"></use></clipPath><g clip-path="url(#camera-SVGID_2_)"><path fill="#D3396D" d="M26.5-1.1C11.9-1.1-1.1 5.6-1.1 27.6h55.2c-.1-19-13-28.7-27.6-28.7z"></path><path fill="#EC407A" d="M53 26.5H-1.1c0 14.6 13 27.6 27.6 27.6s27.6-13 27.6-27.6H53z"></path><path fill="#D3396D" d="M17 24.5h15v9H17z"></path></g><g fill="#F5F5F5"><path id="svg-camera" d="M27.795 17a3 3 0 0 1 2.405 1.206l.3.403a3 3 0 0 0 2.405 1.206H34.2a2.8 2.8 0 0 1 2.8 2.8V32a4 4 0 0 1-4 4H20a4 4 0 0 1-4-4v-9.385a2.8 2.8 0 0 1 2.8-2.8h1.295a3 3 0 0 0 2.405-1.206l.3-.403A3 3 0 0 1 25.205 17h2.59ZM26.5 22.25a5.25 5.25 0 1 0 .001 10.501A5.25 5.25 0 0 0 26.5 22.25Zm0 1.75a3.5 3.5 0 1 1 0 7 3.5 3.5 0 0 1 0-7Z"></path></g></svg>

data-icon="attach-sticker"

<svg width="53" height="53" viewBox="0 0 53 53" fill="none" class=""><g clip-path="url(#clip0_850:74884)"><circle cx="26.5" cy="26.5" r="26.5" fill="#0063CB"></circle><path d="M53 26.5C53 41.136 41.136 53 26.5 53S0 41.136 0 26.5h53Z" fill="#0070E6"></path><path fill-rule="evenodd" clip-rule="evenodd" d="M36.002 22.17v4.32c-.24.321-.624.53-1.056.53H33.14a6.12 6.12 0 0 0-6.12 6.12v1.804c0 .434-.209.818-.532 1.058H22.17a5.17 5.17 0 0 1-5.17-5.17V22.17A5.17 5.17 0 0 1 22.17 17h8.662a5.17 5.17 0 0 1 5.17 5.17Zm-5.48 3.33.937-2.063 2.063-.937-2.063-.938-.937-2.062-.938 2.063-2.062.937 2.062.938.938 2.062Zm-7.022-3 1.406 3.094L28 27l-3.094 1.406L23.5 31.5l-1.406-3.094L19 27l3.094-1.406L23.5 22.5Z" fill="#F7F7F7"></path><path d="M34.946 28.52c.352 0 .69-.065 1-.183a3.87 3.87 0 0 1-1.078 2.088l-4.443 4.443a3.87 3.87 0 0 1-2.087 1.079 2.81 2.81 0 0 0 .184-1.003V33.14a4.62 4.62 0 0 1 4.62-4.62h1.804Z" fill="#F7F7F7"></path></g><defs><clipPath id="clip0_850:74884"><path fill="#fff" d="M0 0h53v53H0z"></path></clipPath></defs></svg>

data-icon="attach-image"

<svg viewBox="0 0 53 53" width="53" height="53" class=""><defs><circle id="image-SVGID_1_" cx="26.5" cy="26.5" r="25.5"></circle></defs><clipPath id="image-SVGID_2_"><use xlink:href="#image-SVGID_1_" overflow="visible"></use></clipPath><g clip-path="url(#image-SVGID_2_)"><path fill="#AC44CF" d="M26.5-1.1C11.9-1.1-1.1 5.6-1.1 27.6h55.2c-.1-19-13-28.7-27.6-28.7z"></path><path fill="#BF59CF" d="M53 26.5H-1.1c0 14.6 13 27.6 27.6 27.6s27.6-13 27.6-27.6H53z"></path><path fill="#AC44CF" d="M17 24.5h18v9H17z"></path></g><g fill="#F5F5F5"><path id="svg-image" d="M18.318 18.25h16.364c.863 0 1.727.827 1.811 1.696l.007.137v12.834c0 .871-.82 1.741-1.682 1.826l-.136.007H18.318a1.83 1.83 0 0 1-1.812-1.684l-.006-.149V20.083c0-.87.82-1.741 1.682-1.826l.136-.007h16.364Zm5.081 8.22-3.781 5.044c-.269.355-.052.736.39.736h12.955c.442-.011.701-.402.421-.758l-2.682-3.449a.54.54 0 0 0-.841-.011l-2.262 2.727-3.339-4.3a.54.54 0 0 0-.861.011Zm8.351-5.22a1.75 1.75 0 1 0 .001 3.501 1.75 1.75 0 0 0-.001-3.501Z"></path></g></svg>




VOICE NOTE  

trash cancel

<svg xmlns="http://www.w3.org/2000/svg" viewBox="0 0 16 22" class="i0x3nve6"><path d="M5,0,3,2H0V4H16V2H13L11,0ZM15,5H1V19.5A2.5,2.5,0,0,0,3.5,22h9A2.5,2.5,0,0,0,15,19.5Z" fill="currentColor"></path></svg>

recording

<svg xmlns="http://www.w3.org/2000/svg" viewBox="0 0 32 32"><circle cx="16" cy="16" r="14.75" fill="none" stroke="currentColor" stroke-width="2.5"></circle><path class="iwt3stqw s79hpmcy ksz6vod1" d="M20.65,21.69V10.25H17.31V21.69Zm-9.3-11.44V21.69h3.34V10.25Z" fill="currentColor"></path></svg>

recording pause

<svg xmlns="http://www.w3.org/2000/svg" viewBox="0 0 32 32" class="iwt3stqw s79hpmcy ksz6vod1"><path fill="currentColor" d="M16,4c1.9,0,3.4,1.4,3.4,3.1v8.6c0,1.7-1.5,3.1-3.4,3.1 c-1.9,0-3.4-1.4-3.4-3.1V7.1C12.6,5.4,14.1,4,16,4"></path><path fill="currentColor" d="M16.3,23.4c-0.2,0-0.6,0-0.9,0l-0.3,0c-3.7-0.4-6.6-3.7-7.1-7.8 L8,15.2c0-0.5,0.3-0.9,0.8-0.9h0.4c0.5,0,0.8,0.4,0.9,0.9l0.1,0.4c0.5,3.1,3,5.5,5.9,5.5c2.9,0,5.3-2.3,5.9-5.4l0.1-0.4 c0-0.5,0.4-0.9,0.9-0.9h0.4c0.4,0,0.8,0.4,0.8,0.9c0,0,0,0.1-0.1,0.6c-0.6,4.1-3.7,7.3-7.4,7.6L16.3,23.4z"></path><path fill="currentColor" d="M17.1,27.3c0,0.4-0.4,0.7-0.9,0.7h-0.5c-0.5,0-0.9-0.3-0.9-0.7V23 c0-0.4,0.4-0.7,0.9-0.7h0.5c0.5,0,0.9,0.3,0.9,0.7V27.3z"></path></svg>

arrow send

<svg xmlns="http://www.w3.org/2000/svg" viewBox="0 0 35 35" class=""><path d="M17.5,0h0A17.51,17.51,0,0,1,35,17.5h0A17.51,17.51,0,0,1,17.5,35h0A17.51,17.51,0,0,1,0,17.5H0A17.51,17.51,0,0,1,17.5,0Z" fill="currentColor"></path><path class="iwt3stqw s79hpmcy ksz6vod1" d="M25.64,18.55,11.2,24.93a.86.86,0,0,1-1.13-.44.83.83,0,0,1-.06-.44l.48-4.11a1.36,1.36,0,0,1,1.24-1.19l7.51-.6a.16.16,0,0,0,.14-.16.16.16,0,0,0-.14-.14l-7.51-.6a1.36,1.36,0,0,1-1.24-1.19L10,12a.84.84,0,0,1,.74-.94.87.87,0,0,1,.45.06l14.44,6.38a.61.61,0,0,1,.31.79A.59.59,0,0,1,25.64,18.55Z" fill="#fff"></path></svg>

CHAT

data-icon="smiley"

<svg viewBox="0 0 24 24" width="24" height="24" class="ekdr8vow dhq51u3o"><path fill="currentColor" d="M9.153 11.603c.795 0 1.439-.879 1.439-1.962s-.644-1.962-1.439-1.962-1.439.879-1.439 1.962.644 1.962 1.439 1.962zm-3.204 1.362c-.026-.307-.131 5.218 6.063 5.551 6.066-.25 6.066-5.551 6.066-5.551-6.078 1.416-12.129 0-12.129 0zm11.363 1.108s-.669 1.959-5.051 1.959c-3.505 0-5.388-1.164-5.607-1.959 0 0 5.912 1.055 10.658 0zM11.804 1.011C5.609 1.011.978 6.033.978 12.228s4.826 10.761 11.021 10.761S23.02 18.423 23.02 12.228c.001-6.195-5.021-11.217-11.216-11.217zM12 21.354c-5.273 0-9.381-3.886-9.381-9.159s3.942-9.548 9.215-9.548 9.548 4.275 9.548 9.548c-.001 5.272-4.109 9.159-9.382 9.159zm3.108-9.751c.795 0 1.439-.879 1.439-1.962s-.644-1.962-1.439-1.962-1.439.879-1.439 1.962.644 1.962 1.439 1.962z"></path></svg>

data-icon="clip"

<svg viewBox="0 0 24 24" width="24" height="24" class=""><path fill="currentColor" d="M1.816 15.556v.002c0 1.502.584 2.912 1.646 3.972s2.472 1.647 3.974 1.647a5.58 5.58 0 0 0 3.972-1.645l9.547-9.548c.769-.768 1.147-1.767 1.058-2.817-.079-.968-.548-1.927-1.319-2.698-1.594-1.592-4.068-1.711-5.517-.262l-7.916 7.915c-.881.881-.792 2.25.214 3.261.959.958 2.423 1.053 3.263.215l5.511-5.512c.28-.28.267-.722.053-.936l-.244-.244c-.191-.191-.567-.349-.957.04l-5.506 5.506c-.18.18-.635.127-.976-.214-.098-.097-.576-.613-.213-.973l7.915-7.917c.818-.817 2.267-.699 3.23.262.5.501.802 1.1.849 1.685.051.573-.156 1.111-.589 1.543l-9.547 9.549a3.97 3.97 0 0 1-2.829 1.171 3.975 3.975 0 0 1-2.83-1.173 3.973 3.973 0 0 1-1.172-2.828c0-1.071.415-2.076 1.172-2.83l7.209-7.211c.157-.157.264-.579.028-.814L11.5 4.36a.572.572 0 0 0-.834.018l-7.205 7.207a5.577 5.577 0 0 0-1.645 3.971z"></path></svg>

data-icon="ptt"

<svg viewBox="0 0 24 24" width="24" height="24" class=""><path fill="currentColor" d="M11.999 14.942c2.001 0 3.531-1.53 3.531-3.531V4.35c0-2.001-1.53-3.531-3.531-3.531S8.469 2.35 8.469 4.35v7.061c0 2.001 1.53 3.531 3.53 3.531zm6.238-3.53c0 3.531-2.942 6.002-6.237 6.002s-6.237-2.471-6.237-6.002H3.761c0 4.001 3.178 7.297 7.061 7.885v3.884h2.354v-3.884c3.884-.588 7.061-3.884 7.061-7.885h-2z"></path></svg>

INFO

data-icon="chevron-right-alt"

<svg viewBox="0 0 10 21" width="10" height="21" class=""><path fill="currentColor" d="m1 15.75 5.2-5.2L1 5.35l1.5-1.5 6.5 6.7-6.6 6.6-1.4-1.4z"></path></svg>

data-icon="star"

<svg viewBox="0 0 16 15" height="20" preserveAspectRatio="xMidYMid meet" class=""><path fill="currentColor" d="m8.3 10.2-2.5 1.7c-.3.2-.8-.1-.7-.5L6 8.6c.1-.2 0-.4-.2-.5L3.5 6.3c-.4-.3-.2-.8.2-.8l3-.1c.2 0 .3-.1.4-.3l1-2.8c.1-.4.7-.4.8 0l1 2.8c.1.2.2.3.4.3l3 .1c.4 0 .6.5.3.8l-2.4 1.8c-.1.1-.2.3-.2.5l.9 2.9c.1.4-.3.7-.7.5l-2.5-1.7c-.1-.2-.3-.2-.4-.1z"></path></svg>

data-icon="settings-notifications"

<svg viewBox="0 0 24 24" height="20" preserveAspectRatio="xMidYMid meet" class=""><path fill="currentColor" d="M12 21.7c.9 0 1.7-.8 1.7-1.7h-3.4c0 .9.8 1.7 1.7 1.7zm5.6-5.2v-4.7c0-2.7-1.8-4.8-4.3-5.4v-.6c0-.7-.6-1.3-1.3-1.3s-1.3.6-1.3 1.3v.6c-2.5.6-4.3 2.7-4.3 5.4v4.7l-1.7 1.7v.9h14.6v-.9l-1.7-1.7z"></path></svg>

data-icon="settings"

<svg height="17" viewBox="0 0 20 20" fill="none" preserveAspectRatio="xMidYMid meet" class=""><path fill-rule="evenodd" clip-rule="evenodd" d="M17.502 10c0 .34-.03.66-.07.98l2.11 1.65c.19.15.24.42.12.64l-2 3.46c-.12.22-.38.31-.61.22l-2.49-1c-.52.39-1.08.73-1.69.98l-.38 2.65c-.03.24-.24.42-.49.42h-4c-.25 0-.46-.18-.49-.42l-.38-2.65c-.61-.25-1.17-.58-1.69-.98l-2.49 1c-.22.08-.49 0-.61-.22l-2-3.46a.505.505 0 0 1 .12-.64l2.11-1.65a7.93 7.93 0 0 1-.07-.98c0-.33.03-.66.07-.98L.462 7.37a.493.493 0 0 1-.12-.64l2-3.46c.12-.22.38-.31.61-.22l2.49 1c.52-.39 1.08-.73 1.69-.98l.38-2.65c.03-.24.24-.42.49-.42h4c.25 0 .46.18.49.42l.38 2.65c.61.25 1.17.58 1.69.98l2.49-1c.22-.08.49 0 .61.22l2 3.46c.12.22.07.49-.12.64l-2.11 1.65c.04.32.07.64.07.98zm-11 0c0 1.93 1.57 3.5 3.5 3.5s3.5-1.57 3.5-3.5-1.57-3.5-3.5-3.5-3.5 1.57-3.5 3.5z" fill="currentColor"></path></svg>

data-icon="add-user"

<svg viewBox="0 0 24 24" width="24" height="24" class=""><path fill="currentColor" d="M14.7 12c2 0 3.6-1.6 3.6-3.6s-1.6-3.6-3.6-3.6-3.6 1.6-3.6 3.6 1.6 3.6 3.6 3.6zm-8.1-1.8V7.5H4.8v2.7H2.1V12h2.7v2.7h1.8V12h2.7v-1.8H6.6zm8.1 3.6c-2.4 0-7.2 1.2-7.2 3.6v1.8H22v-1.8c-.1-2.4-4.9-3.6-7.3-3.6z"></path></svg>

data-icon="link"

<svg viewBox="0 0 24 24" width="24" height="24" class=""><path fill="currentColor" d="M8.1 13.5h7.8v-1.9H8.1v1.9zm-4.9-.9c0-2.1 1.6-3.7 3.7-3.7h3.6V7.2H6.9c-2.9 0-5.4 2.4-5.4 5.4 0 2.9 2.4 5.3 5.4 5.3h3.6v-1.7H6.9c-2.1 0-3.7-1.6-3.7-3.6zm13.9-5.4h-3.5v1.7h3.5c2.1 0 3.7 1.6 3.7 3.7s-1.6 3.7-3.7 3.7h-3.5V18h3.5c2.9 0 5.3-2.4 5.3-5.3.1-3.1-2.4-5.5-5.3-5.5z"></path></svg>

data-icon="exit"

<svg viewBox="0 0 24 24" width="24" height="24" class=""><path fill="currentColor" d="m16.6 8.1 1.2-1.2 5.1 5.1-5.1 5.1-1.2-1.2 3-3H8.7v-1.8h10.9l-3-3zM3.8 19.9h9.1c1 0 1.8-.8 1.8-1.8v-1.4h-1.8v1.4H3.8V5.8h9.1v1.4h1.8V5.8c0-1-.8-1.8-1.8-1.8H3.8C2.8 4 2 4.8 2 5.8v12.4c0 .9.8 1.7 1.8 1.7z"></path></svg>

data-icon="settings-blocked"

<svg viewBox="0 0 24 24" width="24" height="24" class=""><path fill="currentColor" d="M12 2.8c-5.3 0-9.7 4.3-9.7 9.7s4.3 9.7 9.7 9.7 9.7-4.3 9.7-9.7-4.4-9.7-9.7-9.7zm-7.3 9.7c0-4 3.3-7.3 7.3-7.3 1.6 0 3.1.5 4.3 1.4L6.1 16.8c-.9-1.2-1.4-2.7-1.4-4.3zm7.3 7.3c-1.6 0-3-.5-4.2-1.4L17.9 8.3c.9 1.2 1.4 2.6 1.4 4.2 0 4-3.3 7.3-7.3 7.3z"></path></svg>

data-icon="thumbs-down"

<svg viewBox="0 0 24 24" width="24" height="24" class=""><path fill="currentColor" d="M14.091 4.2H6.318c-.691 0-1.295.432-1.555 1.036l-2.591 6.132c-.086.173-.172.346-.172.605V13.7c0 .95.777 1.727 1.727 1.727h5.441L8.305 19.4v.259c0 .345.173.691.345.95l.95.864 5.7-5.7c.345-.345.518-.777.518-1.209V5.927c0-.95-.777-1.727-1.727-1.727zm3.454 0v10.364H21V4.2h-3.455z" id="thumb-down"></path></svg>

data-icon="media-download"

<svg width="24" height="24" viewBox="0 0 24 24" class=""><path d="M19.473 12.2h-4.3V2.9c0-.5-.4-.9-.9-.9h-4.3c-.5 0-.9.4-.9.9v9.3h-4.3c-.8 0-1 .5-.5 1.1l6.8 7.3c.7.9 1.4.7 2.1 0l6.8-7.3c.5-.6.3-1.1-.5-1.1Z" fill="currentColor"></path></svg>

data-icon="forward-chat"

<svg viewBox="0 0 25 25" width="25" height="25" class=""><path fill-rule="evenodd" clip-rule="evenodd" fill="currentColor" d="M14.248 6.973a.688.688 0 0 1 1.174-.488l5.131 5.136a.687.687 0 0 1 0 .973l-5.131 5.136a.688.688 0 0 1-1.174-.488v-2.319c-4.326 0-7.495 1.235-9.85 3.914-.209.237-.596.036-.511-.268 1.215-4.391 4.181-8.492 10.361-9.376v-2.22z"></path></svg>

data-icon="status-image"

<svg viewBox="0 0 16 20" width="16" height="20" class=""><path fill="currentColor" d="M13.822 4.668H7.14l-1.068-1.09a1.068 1.068 0 0 0-.663-.278H3.531c-.214 0-.51.128-.656.285L1.276 5.296c-.146.157-.266.46-.266.675v1.06l-.001.003v6.983c0 .646.524 1.17 1.17 1.17h11.643a1.17 1.17 0 0 0 1.17-1.17v-8.18a1.17 1.17 0 0 0-1.17-1.169zm-5.982 8.63a3.395 3.395 0 1 1 0-6.79 3.395 3.395 0 0 1 0 6.79zm0-5.787a2.392 2.392 0 1 0 0 4.784 2.392 2.392 0 0 0 0-4.784z"></path></svg>

data-icon="status-video"

<svg viewBox="0 0 16 20" width="16" height="20" class=""><path fill="currentColor" d="m15.243 5.868-3.48 3.091v-2.27c0-.657-.532-1.189-1.189-1.189H1.945c-.657 0-1.189.532-1.189 1.189v7.138c0 .657.532 1.189 1.189 1.189h8.629c.657 0 1.189-.532 1.189-1.189v-2.299l3.48 3.09v-8.75z"></path></svg>

data-icon="recalled"

<svg width="24" height="24" viewBox="0 0 24 24" fill="none" class=""><path fill-rule="evenodd" clip-rule="evenodd" d="M7.759 6.43a7 7 0 0 1 9.81 9.81l-9.81-9.81ZM6.357 7.858a7 7 0 0 0 9.786 9.786L6.357 7.857ZM12 3a9 9 0 1 0 0 18 9 9 0 0 0 0-18Z" fill="currentColor"></path></svg>

data-icon="react"

<svg width="15" viewBox="0 0 15 15" fill="none" preserveAspectRatio="xMidYMid meet" class=""><path fill-rule="evenodd" clip-rule="evenodd" d="M0 7.5C0 11.63 3.37 15 7.5 15A7.5 7.5 0 0 0 15 7.5C15 3.37 11.63 0 7.5 0S0 3.37 0 7.5Zm10.995 1.193.326-.04c.289-.023.487.266.357.487-.82 1.497-2.387 2.653-4.173 2.653-1.787 0-3.353-1.133-4.174-2.63-.145-.244.045-.533.334-.51.126.014.27.032.43.052.848.103 2.126.26 3.387.26 1.337 0 2.656-.165 3.513-.272Zm-5.58-1.32c.643 0 1.194-.644 1.194-1.343 0-.727-.551-1.343-1.195-1.343s-1.195.644-1.195 1.343c-.01.726.551 1.342 1.195 1.342Zm5.366-1.317c0 .685-.541 1.316-1.172 1.316-.63 0-1.171-.604-1.171-1.316 0-.685.54-1.316 1.171-1.316s1.172.604 1.172 1.316Z" fill="currentColor"></path></svg>

data-icon="audio-play"

<svg viewBox="0 0 34 34" width="34" height="34" class=""><path fill="currentColor" d="M8.5 8.7c0-1.7 1.2-2.4 2.6-1.5l14.4 8.3c1.4.8 1.4 2.2 0 3l-14.4 8.3c-1.4.8-2.6.2-2.6-1.5V8.7z"></path></svg>

data-icon="view-once-viewed"

<svg width="24" height="24" viewBox="0 0 24 24" fill="none" class="i94gqilv bmot90v7"><path fill-rule="evenodd" clip-rule="evenodd" d="M12 21c.088 0 .175-.001.262-.004a1 1 0 0 0-.057-1.999A7.326 7.326 0 0 1 12 19v2Zm0-16c.069 0 .137.001.205.003a1 1 0 0 0 .057-2A9.117 9.117 0 0 0 12 3v2Zm4.273-.923a1 1 0 0 0-.95 1.76c.119.064.236.132.351.204a1 1 0 1 0 1.052-1.702 8.99 8.99 0 0 0-.453-.262Zm3.388 3.197a1 1 0 0 0-1.702 1.051c.072.116.14.233.204.353a1 1 0 0 0 1.76-.95 8.997 8.997 0 0 0-.262-.454Zm1.335 4.464a1 1 0 0 0-1.999.057 7.326 7.326 0 0 1 0 .41 1 1 0 1 0 2 .057 9.496 9.496 0 0 0 0-.524Zm-1.073 4.535a1 1 0 1 0-1.76-.95 6.95 6.95 0 0 1-.204.351 1 1 0 1 0 1.702 1.052c.091-.148.179-.3.262-.453Zm-3.197 3.388a1 1 0 0 0-1.051-1.702 6.95 6.95 0 0 1-.353.204 1 1 0 0 0 .95 1.76c.155-.083.306-.17.454-.262ZM12 3a9 9 0 0 0 0 18v-2a7 7 0 1 1 0-14V3Z" fill="currentColor"></path></svg>

data-icon="status-miss_video"

<svg viewBox="0 0 16 18" width="16" height="18" class=""><path fill="currentColor" d="M9.4 5.8H2.8c-1 0-1.8.8-1.8 1.8v5.6c0 1 .8 1.8 1.8 1.8h6.6c1 0 1.8-.8 1.8-1.8V7.6c0-1-.8-1.8-1.8-1.8zm-.7 2.7-3.2 3.2h1.7c.2 0 .3.1.3.3v.4c0 .2-.1.3-.3.3H4.1c-.2 0-.3-.1-.3-.3V9.3c0-.2.1-.3.3-.3h.4c.2 0 .3.1.3.3V11L8 7.8c.1-.1.3-.1.5 0l.2.3c.1.1.1.3 0 .4zm3.9.1c-.1.1-.2.3-.2.4v2.7c0 .2.1.3.2.4l2.4 1.7V7l-2.4 1.6z"></path></svg>

data-icon="status-document"

<svg viewBox="0 0 13 20" width="13" height="20" class=""><path fill="currentColor" d="M10.2 3H2.5C1.7 3 1 3.7 1 4.5v10.1c0 .7.7 1.4 1.5 1.4h7.7c.8 0 1.5-.7 1.5-1.5v-10C11.6 3.7 11 3 10.2 3zm-2.6 9.7H3.5v-1.3h4.1v1.3zM9.3 10H3.5V8.7h5.8V10zm0-2.7H3.5V6h5.8v1.3z"></path></svg>

data-icon="status-sticker"

<svg viewBox="0 0 16 16" width="16" height="16" class=""><path fill="currentColor" d="M9.179 14.637c.061-.14.106-.29.135-.45.031-.171.044-.338.049-.543a9.05 9.05 0 0 0 .003-.233l.001-.067v-.072l.002-.216c.01-.364.032-1.205.08-1.473.052-.287.136-.538.255-.771a2.535 2.535 0 0 1 1.125-1.111 2.8 2.8 0 0 1 .786-.255c.27-.048 1.098-.07 1.487-.08l.152.001h.047l.325-.004a3.63 3.63 0 0 0 .554-.048 2.06 2.06 0 0 0 .494-.151 4.766 4.766 0 0 1-1.359 2.429 143.91 143.91 0 0 1-2.057 1.924 4.782 4.782 0 0 1-2.079 1.12zm-1.821.16-.474.012a9.023 9.023 0 0 1-1.879-.11 4.747 4.747 0 0 1-1.314-.428 4.376 4.376 0 0 1-1.123-.807 4.354 4.354 0 0 1-.816-1.11 4.584 4.584 0 0 1-.434-1.303 8.783 8.783 0 0 1-.12-1.356 29.156 29.156 0 0 1-.009-.617c-.002-.206-.002-.37-.002-.736v-.674l.001-.549.001-.182c.001-.223.004-.426.009-.62a8.69 8.69 0 0 1 .121-1.358c.087-.476.229-.903.434-1.301a4.399 4.399 0 0 1 1.936-1.916 4.7 4.7 0 0 1 1.315-.429 8.926 8.926 0 0 1 1.379-.12c.72-.009.989-.011 1.359-.011h.528c.896.003 1.143.005 1.366.011.55.015.959.046 1.371.12.482.085.913.226 1.314.428a4.396 4.396 0 0 1 1.937 1.915c.206.4.348.827.434 1.302.075.412.107.819.121 1.356.006.198.009.402.01.619v.024c0 .069-.001.132-.003.194a2.61 2.61 0 0 1-.033.391.902.902 0 0 1-.494.677 1.05 1.05 0 0 1-.29.094 2.734 2.734 0 0 1-.395.033l-.311.004h-.039l-.163-.001c-.453.012-1.325.036-1.656.096a3.81 3.81 0 0 0-1.064.348 3.541 3.541 0 0 0-.911.655c-.267.263-.49.566-.661.899-.166.324-.281.67-.351 1.054-.06.33-.085 1.216-.096 1.636l-.002.23v.069l-.001.067c0 .074-.001.143-.003.213-.004.158-.014.28-.033.388a.902.902 0 0 1-.494.676 1.054 1.054 0 0 1-.289.093 1.335 1.335 0 0 1-.176.024z"></path></svg>

data-icon="gif"

<svg viewBox="0 0 24 24" width="24" height="24" class="ekdr8vow dhq51u3o"><path fill="currentColor" d="m13.177 12.013-.001-.125v-1.053c0-.464 0-.827-.002-1.178a.723.723 0 0 0-.557-.7.715.715 0 0 0-.826.4c-.05.115-.072.253-.073.403-.003 1.065-.003 1.917-.002 3.834v.653c0 .074.003.136.009.195a.72.72 0 0 0 .57.619c.477.091.878-.242.881-.734.002-.454.003-.817.002-1.633l-.001-.681zm-3.21-.536a35.751 35.751 0 0 0-1.651-.003c-.263.005-.498.215-.565.48a.622.622 0 0 0 .276.7.833.833 0 0 0 .372.104c.179.007.32.008.649.005l.137-.001v.102c-.001.28-.001.396.003.546.001.044-.006.055-.047.081-.242.15-.518.235-.857.275-.767.091-1.466-.311-1.745-1.006a2.083 2.083 0 0 1-.117-1.08 1.64 1.64 0 0 1 1.847-1.41c.319.044.616.169.917.376.196.135.401.184.615.131a.692.692 0 0 0 .541-.562c.063-.315-.057-.579-.331-.766-.789-.542-1.701-.694-2.684-.482-2.009.433-2.978 2.537-2.173 4.378.483 1.105 1.389 1.685 2.658 1.771.803.054 1.561-.143 2.279-.579.318-.193.498-.461.508-.803.014-.52.015-1.046.001-1.578-.009-.362-.29-.669-.633-.679zM18 4.25H6A4.75 4.75 0 0 0 1.25 9v6A4.75 4.75 0 0 0 6 19.75h12A4.75 4.75 0 0 0 22.75 15V9A4.75 4.75 0 0 0 18 4.25zM21.25 15A3.25 3.25 0 0 1 18 18.25H6A3.25 3.25 0 0 1 2.75 15V9A3.25 3.25 0 0 1 6 5.75h12A3.25 3.25 0 0 1 21.25 9v6zm-2.869-6.018H15.3c-.544 0-.837.294-.837.839V14.309c0 .293.124.525.368.669.496.292 1.076-.059 1.086-.651.005-.285.006-.532.004-1.013v-.045l-.001-.46v-.052h1.096l1.053-.001a.667.667 0 0 0 .655-.478c.09-.298-.012-.607-.271-.757a.985.985 0 0 0-.468-.122 82.064 82.064 0 0 0-1.436-.006h-.05l-.523.001h-.047v-1.051h1.267l1.22-.001c.458-.001.768-.353.702-.799-.053-.338-.35-.56-.737-.561z"></path></svg>

data-icon="sticker"

<svg viewBox="0 0 24 24" width="24" height="24" class="ekdr8vow dhq51u3o"><path fill="currentColor" d="M21.799 10.183c-.002-.184-.003-.373-.008-.548-.02-.768-.065-1.348-.173-1.939a6.6 6.6 0 0 0-.624-1.87 6.24 6.24 0 0 0-1.171-1.594 6.301 6.301 0 0 0-1.614-1.159 6.722 6.722 0 0 0-1.887-.615c-.59-.106-1.174-.15-1.961-.171-.318-.008-3.607-.012-4.631 0-.798.02-1.383.064-1.975.17a6.783 6.783 0 0 0-1.888.616 6.326 6.326 0 0 0-2.785 2.753 6.658 6.658 0 0 0-.623 1.868c-.107.591-.152 1.186-.173 1.941-.008.277-.016 2.882-.016 2.882 0 .52.008 1.647.016 1.925.02.755.066 1.349.172 1.938.126.687.33 1.3.624 1.871.303.59.698 1.126 1.173 1.595a6.318 6.318 0 0 0 1.614 1.159 6.786 6.786 0 0 0 2.146.656c.479.068.833.087 1.633.108.035.001 2.118-.024 2.578-.035a6.873 6.873 0 0 0 4.487-1.811 210.877 210.877 0 0 0 2.928-2.737 6.857 6.857 0 0 0 2.097-4.528l.066-1.052.001-.668c.001-.023-.005-.738-.006-.755zm-3.195 5.92c-.79.757-1.784 1.684-2.906 2.716a5.356 5.356 0 0 1-2.044 1.154c.051-.143.116-.276.145-.433.042-.234.06-.461.067-.74.003-.105.009-.789.009-.789.013-.483.042-.865.107-1.22.069-.379.179-.709.336-1.016.16-.311.369-.595.621-.844.254-.252.542-.458.859-.617.314-.158.65-.268 1.037-.337a8.127 8.127 0 0 1 1.253-.106s.383.001.701-.003a4.91 4.91 0 0 0 .755-.066c.186-.034.348-.105.515-.169a5.35 5.35 0 0 1-1.455 2.47zm1.663-4.757a1.128 1.128 0 0 1-.615.859 1.304 1.304 0 0 1-.371.119 3.502 3.502 0 0 1-.52.043c-.309.004-.687.004-.687.004-.613.016-1.053.049-1.502.129a5.21 5.21 0 0 0-1.447.473 4.86 4.86 0 0 0-2.141 2.115 5.088 5.088 0 0 0-.479 1.434 9.376 9.376 0 0 0-.131 1.461s-.006.684-.008.777c-.006.208-.018.37-.043.511a1.154 1.154 0 0 1-.626.86c-.072.036-.168.063-.37.098-.027.005-.25.027-.448.031-.021 0-1.157.01-1.192.009-.742-.019-1.263-.046-1.668-.126a5.27 5.27 0 0 1-1.477-.479 4.823 4.823 0 0 1-2.127-2.1 5.141 5.141 0 0 1-.482-1.453c-.09-.495-.13-1.025-.149-1.71a36.545 36.545 0 0 1-.012-.847c-.003-.292.005-3.614.012-3.879.02-.685.061-1.214.151-1.712a5.12 5.12 0 0 1 .481-1.45c.231-.449.53-.856.892-1.213.363-.36.777-.657 1.233-.886a5.26 5.26 0 0 1 1.477-.479c.503-.09 1.022-.129 1.74-.149a342.03 342.03 0 0 1 4.561 0c.717.019 1.236.058 1.737.148a5.263 5.263 0 0 1 1.476.478 4.835 4.835 0 0 1 2.126 2.098c.228.441.385.913.482 1.453.091.499.131 1.013.15 1.712.008.271.014 1.098.014 1.235a2.935 2.935 0 0 1-.037.436z"></path></svg>

data-icon="panel-emoji-nature"

<svg viewBox="0 0 24 24" width="24" height="24" class=""><path fill="currentColor" d="M7.2 12.2c.608 0 1.1.627 1.1 1.4S7.808 15 7.2 15s-1.1-.627-1.1-1.4.492-1.4 1.1-1.4zm9.7 0c.608 0 1.1.627 1.1 1.4s-.492 1.4-1.1 1.4-1.1-.627-1.1-1.4.492-1.4 1.1-1.4zm4.6-1.1-1.2-2.4c.9-.4 1.7-1.3 2-2.2.3-.7.4-2.1-1-3.5-1-.9-2-1.2-2.9-1-1.1.3-1.9 1.2-2.3 1.9-1.4-.7-2.9-.8-4.1-.8-1.5 0-2.8.3-4 .9-.5-.9-1.2-1.8-2.3-2.1-1-.2-2 .1-2.9 1-1 1-1.4 2.2-1 3.4.4 1.1 1.2 1.9 2 2.3-.2.5-.4 1-.6 1.6l-.2.2c-.3.7-.5 1.3-.8 1.9-.4 1-.9 1.9-.9 3.1 0 1.6.8 6.7 10.5 6.7 3.8 0 6.6-.7 8.5-2.2s2.2-3.4 2.2-4.3c.2-2.1-.2-2.9-1-4.5zm-2.7-7.6c.4-.1.9.1 1.5.6.6.6.8 1.2.6 1.8-.2.6-.7 1.1-1.2 1.3-.6-1.2-1.3-2-2.1-2.6.2-.4.6-1 1.2-1.1zM3.3 5.9c-.2-.6 0-1.2.6-1.8.5-.5 1.1-.7 1.5-.6.5.1 1.1.7 1.3 1.2-.9.7-1.6 1.5-2.2 2.6C4 7 3.4 6.5 3.3 5.9zm17.8 9.7c0 .7-.2 2-1.6 3.1-1.5 1.2-4.1 1.8-7.5 1.8-8.3 0-8.9-3.9-8.9-5.1 0-.8.3-1.5.7-2.4.3-.6.6-1.2.8-2.1l.1-.2c.5-1.5 2-6.2 7.3-6.2 1.2 0 2.5.2 3.7.9.1.1.5.3.5.3.9.7 1.7 1.7 2.4 3.2.6 1.3 1 2.2 1.4 2.9.8 1.6 1.1 2.1 1.1 3.8zM14.6 17c-.1.1-.6.4-1.2.3-.4-.1-.7-.3-.9-.8 0-.1-.1-.1-.1-.2.8-.1 1.3-.6 1.3-1.3s-.7 0-1.7 0c-.9 0-1.7-.7-1.7 0 0 .6.6 1.2 1.4 1.3l-.1.1c-.3.4-.5.7-.9.8-.5.1-1.1-.1-1.3-.3-.2-.2-.5-.1-.7.1s-.1.5.1.7c.1.1.8.5 1.6.5.2 0 .4 0 .5-.1.4-.1.8-.3 1.1-.7.4.4.9.6 1.2.7.8.2 1.7-.2 2-.5.2-.2.2-.5 0-.7-.1 0-.4-.1-.6.1z"></path></svg>

data-icon="panel-emoji-food"

<svg viewBox="0 0 24 24" width="24" height="24" class=""><path fill="currentColor" d="M7.4 11.4c-.4 0-.8.4-.8.8V14c0 .4.4.8.8.8s.8-.4.6-.8v-1.8c0-.6-.2-.8-.6-.8zM4.6 10.4c-.4 0-.8.4-.8.8V15c0 .4.4.8.8.8s.8-.4.8-.8v-3.8c0-.6-.4-.8-.8-.8z"></path><path fill="currentColor" d="M23 7.2c-.6-.6-1.6-.8-2.8-.6-.2 0-.4.2-.6.2V4.2c0-.6-.6-1.2-1.2-1.2h-17C.8 3 .2 3.6.2 4.2v7.4c0 5.4 3.2 9.6 8.4 9.6h2.2c4.2 0 7-2.6 8-6h.4c2.2-.4 4-2.6 4.4-4.8.4-1.4.2-2.4-.6-3.2zm-4.8-2.8v3H1.6v-3h16.6zM11 19.8H8.8c-5.2 0-7-4.4-7-8.2V8.8h16.6v2.8c-.2 4-2.4 8.2-7.4 8.2zm8.4-6.2c.2-.6.2-1.4.2-2V8.4c.4-.2.6-.4 1-.4.6-.2 1.2 0 1.4.4.4.4.6 1 .4 1.8-.2 1.4-1.6 3-3 3.4z"></path></svg>

data-icon="panel-emoji-activity"

<svg viewBox="0 0 24 24" width="24" height="24" class=""><path fill="currentColor" d="m14.8 15.3 1.3-3.8c.1-.2 0-.5-.2-.6l-3.3-2.4c-.2-.1-.5-.1-.6 0l-3.3 2.4c-.2.1-.3.4-.2.6l1.3 3.8c.1.2.3.4.5.4h4c.2 0 .4-.2.5-.4z"></path><path fill="currentColor" d="M12 1.9C6.4 1.9 1.9 6.4 1.9 12S6.4 22.1 12 22.1 22.1 17.6 22.1 12 17.6 1.9 12 1.9zM9.8 20.3c.1-.2.1-.4 0-.6l-1.4-2.3c-.1-.1-.2-.2-.4-.3l-2.5-.6c-.2-.1-.5.1-.6.2-.9-1.3-1.4-2.9-1.5-4.5.2 0 .4 0 .5-.2l1.7-2c.1 0 .2-.2.2-.3l-.3-2.6c0-.2-.1-.3-.3-.4C6.2 5.4 7.5 4.5 9 4c0 .1.2.3.3.3l2.5 1.1c.1.1.3.1.4 0l2.5-1.1.3-.3c1.5.6 2.7 1.5 3.7 2.7-.1.1-.2.2-.2.4l-.2 2.6c0 .2 0 .3.1.4l1.7 2c.1.1.3.2.4.2 0 1.6-.5 3.1-1.3 4.4-.1-.1-.2-.1-.4-.1l-2.5.6c-.1 0-.3.1-.4.3l-1.4 2.3c-.1.2-.1.3 0 .5-.8.2-1.6.4-2.5.4-.7-.1-1.5-.2-2.2-.4z"></path></svg>

data-icon="panel-emoji-travel"

<svg viewBox="0 0 24 24" width="24" height="24" class=""><path fill="currentColor" d="M21.5 11.5c0-.7-.1-1.4-.3-2l-1.5-4.3C19.2 3.9 18 3 16.6 3H7.3c-1.4 0-2.6.9-3.1 2.2L2.6 9.9c-.1.4-.2.7-.2 1.1v8.6c0 .6.5 1.1 1.1 1.1h1.1c.6 0 1.1-.5 1.1-1.1v-1.1h12.7v1.1c0 .6.5 1.1 1.1 1.1h1.1c.6 0 1.1-.5 1.1-1.1v-7.4l-.2-.7zM4.1 10.4l1.6-4.7c.2-.7.9-1.2 1.7-1.2h9.2c.7 0 1.4.5 1.6 1.2l1.5 4.3c.1.3.2.6.2.8H4c-.1-.1 0-.3.1-.4zm1.4 5.7c-.8 0-1.5-.7-1.5-1.5s.7-1.5 1.5-1.5 1.5.7 1.5 1.5c-.1.8-.7 1.5-1.5 1.5zm9.4-.6H9.3c-.5 0-1-.4-1-1 0-.5.4-1 1-1h5.6c.5 0 1 .4 1 1-.1.6-.5 1-1 1zm3.7.6c-.8 0-1.5-.7-1.5-1.5s.7-1.5 1.5-1.5 1.5.7 1.5 1.5-.7 1.5-1.5 1.5z"></path></svg>

data-icon="panel-emoji-objects"

<svg viewBox="0 0 24 24" width="24" height="24" class=""><path fill="currentColor" d="M18.8 6.7c-.9-2.6-3.2-4.6-6-4.9h-1.6c-2.8.3-5.1 2.2-6 4.9-1 3 .1 6.2 2.7 8H8c.2.1.3.4.3.6v2c0 .8.6 1.4 1.4 1.4h4.6c.8 0 1.4-.6 1.4-1.4v-2c0-.2.1-.5.3-.6l.1-.1c2.5-1.8 3.6-5 2.7-7.9zm-3.5 6.9-.1.1c-.5.4-.9 1-.9 1.7v2s0 .1-.1.1H9.8s-.1 0-.1-.1v-2c0-.7-.3-1.3-.9-1.7l-.1-.1c-2-1.4-3-4-2.2-6.5.7-2.1 2.6-3.7 4.9-3.9H12.7c2.2.2 4.2 1.8 4.9 3.9.7 2.4-.2 5-2.3 6.5zM9.2 21.2c0 .6.5 1 1 1h3.7c.6 0 1-.5 1-1v-1H9.2v1z"></path><path fill="currentColor" d="M13.6 10.5c-.4 0-.8.3-.8.8 0 .1 0 .2.1.3-.2.3-.5.5-.8.5s-.6-.2-.8-.5c0-.1.1-.2.1-.3 0-.4-.3-.8-.8-.8-.4 0-.8.3-.8.8 0 .4.3.7.7.8.3.4.7.7 1.1.8V15c0 .2.2.4.4.4s.4-.2.4-.4v-2.1c.4-.1.8-.4 1.1-.8.4 0 .8-.3.8-.8s-.3-.8-.7-.8z"></path></svg>

data-icon="panel-emoji-symbols"

<svg viewBox="0 0 24 24" width="24" height="24" class=""><path fill="currentColor" d="M14.5 12.9V11h2.2l-.2-1.3h-2V7.3H13v2.5h-2V7.4H9.5v2.4H7.2l.2 1.2h2.1v1.9H7.3l.2 1.3h2v2.4H11v-2.4h2v2.4h1.5v-2.4h2.3l-.2-1.3h-2.1zM11 11h2v1.9h-2V11z"></path><path fill="currentColor" d="M16.1 2.6H7.9C5 2.6 2.6 5 2.6 7.9V16c0 3 2.4 5.3 5.3 5.3H16c3 0 5.3-2.4 5.3-5.3V7.9c.1-2.9-2.3-5.3-5.2-5.3zm3.7 13.5c0 2.1-1.6 3.8-3.7 3.8H7.9c-2.1 0-3.8-1.7-3.8-3.8V7.9c0-2.1 1.7-3.8 3.8-3.8H16c2.1 0 3.8 1.7 3.8 3.8v8.2z"></path></svg>

data-icon="panel-emoji-flags"

<svg viewBox="0 0 24 24" width="24" height="24" class=""><path fill="currentColor" d="M5.5 3.8v-.2c0-.3-.2-.5-.5-.5h-.5c-.3 0-.5.2-.5.5V21c0 .3.2.5.5.5H5c.3 0 .5-.2.5-.5v-6.2c5 1.8 9.3-2.7 14.5.6V4.1C14.9 1 10.3 5.6 5.5 3.8zm10.3 8.8c-1.4 0-2.8.3-4.1.6-1.2.3-2.4.5-3.5.5-.9 0-1.8-.2-2.6-.5V5.4c.8.2 1.5.3 2.3.3 1.5 0 2.9-.4 4.3-.7 1.3-.3 2.5-.6 3.8-.6.9 0 1.7.2 2.5.5V13c-.9-.2-1.8-.4-2.7-.4z"></path></svg>



AJUSTES

data-icon="settings-notifications"

<svg viewBox="0 0 24 24" width="24" height="24" class=""><path fill="currentColor" d="M12 21.7c.9 0 1.7-.8 1.7-1.7h-3.4c0 .9.8 1.7 1.7 1.7zm5.6-5.2v-4.7c0-2.7-1.8-4.8-4.3-5.4v-.6c0-.7-.6-1.3-1.3-1.3s-1.3.6-1.3 1.3v.6c-2.5.6-4.3 2.7-4.3 5.4v4.7l-1.7 1.7v.9h14.6v-.9l-1.7-1.7z"></path></svg>

data-icon="security-lock"

<svg width="24" height="24" viewBox="0 0 28 35" preserveAspectRatio="xMidYMid meet" class=""><path d="M14 1.102a8.273 8.273 0 0 1 8.273 8.273l-.001 2.804.084.003A4.86 4.86 0 0 1 27 17.037v12.43a4.86 4.86 0 0 1-4.86 4.86H5.86A4.86 4.86 0 0 1 1 29.467v-12.43a4.86 4.86 0 0 1 4.727-4.858V9.375A8.273 8.273 0 0 1 14 1.102Zm0 18.458c-1.958 0-3.545 1.653-3.545 3.692s1.587 3.691 3.545 3.691 3.545-1.652 3.545-3.691c0-2.04-1.587-3.692-3.545-3.692Zm0-14.766c-2.538 0-4.61 2-4.722 4.51l-.005.217-.001 2.655h9.455V9.521A4.727 4.727 0 0 0 14 4.794Z" fill="currentColor"></path></svg>

data-icon="settings-security"

<svg width="24" height="24" viewBox="0 0 24 24" class=""><path d="M12.027 2 4 5.568v5.35c0 4.95 3.425 9.58 8.027 10.704 4.602-1.124 8.027-5.753 8.027-10.703V5.568L12.027 2Zm0 9.802h6.243c-.472 3.674-2.925 6.948-6.243 7.973v-7.964H5.784V6.727l6.243-2.774v7.849Z" fill="currentColor"></path></svg>

data-icon="settings-theme"

<svg width="24" height="24" viewBox="0 0 24 24" class=""><path d="m12 1 3.22 3.22h4.56v4.56L23 12l-3.22 3.22v4.56h-4.56L12 23l-3.22-3.22H4.22v-4.56L1 12l3.22-3.22V4.22h4.56L12 1Zm0 5v12c3.31 0 6-2.69 6-6a6.005 6.005 0 0 0-5.775-5.996L12 6Z" fill="currentColor"></path></svg>

data-icon="settings-wallpaper"

<svg viewBox="0 0 24 24" width="24" height="24" class=""><path fill="currentColor" d="M4.9 5.9h6.4V4.1H4.9c-1 0-1.8.8-1.8 1.8v6.4h1.8V5.9zm5.3 8-3.6 4.4h10.7l-2.7-3.6-1.8 2.4-2.6-3.2zm6.2-4c0-.7-.6-1.3-1.3-1.3s-1.3.6-1.3 1.3.6 1.3 1.3 1.3 1.3-.6 1.3-1.3zm2.7-5.8h-6.4v1.8h6.4v6.4h1.8V5.9c0-1-.8-1.8-1.8-1.8zm0 16h-6.4v1.8h6.4c1 0 1.8-.8 1.8-1.8v-6.4h-1.8v6.4zM4.9 13.7H3.1v6.4c0 1 .8 1.8 1.8 1.8h6.4v-1.8H4.9v-6.4z"></path></svg>

data-icon="settings-keyboard"

<svg width="24" height="24" viewBox="0 0 24 24" class=""><path fill="currentColor" d="M10.852 12.648h2.296L12 9ZM20 8.691V6c0-1.102-.898-2-2-2h-2.691L13.41 2.102a2 2 0 0 0-2.828 0L8.692 4H6c-1.102 0-2 .898-2 2v2.691L2.102 10.59a2.004 2.004 0 0 0 0 2.832L4 15.32V18c0 1.102.898 2 2 2h2.691l1.899 1.898c.781.782 2.05.782 2.832 0L15.32 20H18c1.102 0 2-.898 2-2v-2.691l1.898-1.899a2.004 2.004 0 0 0 0-2.832Zm-5.91 6.707L13.602 14h-3.204l-.488 1.398a.89.89 0 0 1-.84.602.888.888 0 0 1-.84-1.191l2.442-6.86C10.872 7.38 11.398 7 12 7c.602 0 1.129.379 1.34.941l2.441 6.86a.89.89 0 0 1-.84 1.187.868.868 0 0 1-.851-.59Zm0 0"></path></svg>

data-icon="settings-help"

<svg viewBox="0 0 24 24" width="24" height="24" class=""><path fill="currentColor" d="M12 4.7c-4.5 0-8.2 3.7-8.2 8.2s3.7 8.2 8.2 8.2 8.2-3.7 8.2-8.2-3.7-8.2-8.2-8.2zm.8 13.9h-1.6V17h1.6v1.6zm1.7-6.3-.7.7c-.7.6-1 1.1-1 2.3h-1.6v-.4c0-.9.3-1.7 1-2.3l1-1.1c.3-.2.5-.7.5-1.1 0-.9-.7-1.6-1.6-1.6s-1.6.7-1.6 1.6H8.7c0-1.8 1.5-3.3 3.3-3.3s3.3 1.5 3.3 3.3c0 .8-.4 1.4-.8 1.9z"></path></svg>










